<svg width="24" height="25" viewBox="0 0 24 25" fill="none" xmlns="http://www.w3.org/2000/svg">
<path d="M12 2.49634C16.0499 2.49634 19.3567 5.69108 19.4958 9.74539L19.5 9.99634V14.0933L20.88 17.2493C20.949 17.4072 20.9847 17.5777 20.9847 17.7501C20.9847 18.4405 20.425 19.0001 19.7347 19.0001L15 19.0016C15 20.6585 13.6568 22.0016 12 22.0016C10.4023 22.0016 9.09633 20.7527 9.00508 19.1779L8.99954 18.9993L4.27485 19.0001C4.10351 19.0001 3.93401 18.9649 3.77685 18.8966C3.14365 18.6216 2.8533 17.8853 3.12834 17.2521L4.49999 14.0943V9.99623C4.50059 5.84144 7.85208 2.49634 12 2.49634ZM13.4995 18.9993L10.5 19.0016C10.5 19.83 11.1716 20.5016 12 20.5016C12.7797 20.5016 13.4204 19.9067 13.4931 19.1461L13.4995 18.9993ZM12 3.99634C8.67983 3.99634 6.00047 6.67059 5.99999 9.99634V14.406L4.65601 17.5001H19.3525L18 14.4069L18.0001 10.0092L17.9964 9.78399C17.8853 6.55052 15.2416 3.99634 12 3.99634Z" fill="#616161"/>
</svg>
