<svg width="24" height="25" viewBox="0 0 24 25" fill="none" xmlns="http://www.w3.org/2000/svg">
<path d="M17.75 3.5C19.5449 3.5 21 4.95507 21 6.75V18.25C21 20.0449 19.5449 21.5 17.75 21.5H6.25C4.45507 21.5 3 20.0449 3 18.25V6.75C3 4.95507 4.45507 3.5 6.25 3.5H17.75ZM19.5 9H4.5V18.25C4.5 19.2165 5.2835 20 6.25 20H17.75C18.7165 20 19.5 19.2165 19.5 18.25V9ZM7.75 15C8.44036 15 9 15.5596 9 16.25C9 16.9404 8.44036 17.5 7.75 17.5C7.05964 17.5 6.5 16.9404 6.5 16.25C6.5 15.5596 7.05964 15 7.75 15ZM12 15C12.6904 15 13.25 15.5596 13.25 16.25C13.25 16.9404 12.6904 17.5 12 17.5C11.3096 17.5 10.75 16.9404 10.75 16.25C10.75 15.5596 11.3096 15 12 15ZM7.75 11C8.44036 11 9 11.5596 9 12.25C9 12.9404 8.44036 13.5 7.75 13.5C7.05964 13.5 6.5 12.9404 6.5 12.25C6.5 11.5596 7.05964 11 7.75 11ZM12 11C12.6904 11 13.25 11.5596 13.25 12.25C13.25 12.9404 12.6904 13.5 12 13.5C11.3096 13.5 10.75 12.9404 10.75 12.25C10.75 11.5596 11.3096 11 12 11ZM16.25 11C16.9404 11 17.5 11.5596 17.5 12.25C17.5 12.9404 16.9404 13.5 16.25 13.5C15.5596 13.5 15 12.9404 15 12.25C15 11.5596 15.5596 11 16.25 11ZM17.75 5H6.25C5.2835 5 4.5 5.7835 4.5 6.75V7.5H19.5V6.75C19.5 5.7835 18.7165 5 17.75 5Z" fill="#616161"/>
</svg>
