<svg width="24" height="25" viewBox="0 0 24 25" fill="none" xmlns="http://www.w3.org/2000/svg">
<g clip-path="url(#clip0_2_44512)">
<path d="M12 2.5C17.5228 2.5 22 6.97715 22 12.5C22 18.0228 17.5228 22.5 12 22.5C10.3817 22.5 8.81782 22.1146 7.41286 21.388L3.58704 22.4553C2.92212 22.641 2.23258 22.2525 2.04691 21.5876C1.98546 21.3676 1.98549 21.1349 2.04695 20.9151L3.11461 17.0922C2.38637 15.686 2 14.1203 2 12.5C2 6.97715 6.47715 2.5 12 2.5ZM12 4C7.30558 4 3.5 7.80558 3.5 12.5C3.5 13.9696 3.87277 15.3834 4.57303 16.6375L4.72368 16.9072L3.61096 20.8914L7.59755 19.7792L7.86709 19.9295C9.12006 20.6281 10.5322 21 12 21C16.6944 21 20.5 17.1944 20.5 12.5C20.5 7.80558 16.6944 4 12 4ZM8.75 13.5H13.2483C13.6625 13.5 13.9983 13.8358 13.9983 14.25C13.9983 14.6297 13.7161 14.9435 13.35 14.9932L13.2483 15H8.75C8.33579 15 8 14.6642 8 14.25C8 13.8703 8.28215 13.5565 8.64823 13.5068L8.75 13.5H13.2483H8.75ZM8.75 10H15.2545C15.6687 10 16.0045 10.3358 16.0045 10.75C16.0045 11.1297 15.7223 11.4435 15.3563 11.4932L15.2545 11.5H8.75C8.33579 11.5 8 11.1642 8 10.75C8 10.3703 8.28215 10.0565 8.64823 10.0068L8.75 10H15.2545H8.75Z" fill="#616161"/>
</g>
<defs>
<clipPath id="clip0_2_44512">
<path d="M0 4.5C0 2.29086 1.79086 0.5 4 0.5H20C22.2091 0.5 24 2.29086 24 4.5V20.5C24 22.7091 22.2091 24.5 20 24.5H4C1.79086 24.5 0 22.7091 0 20.5V4.5Z" fill="white"/>
</clipPath>
</defs>
</svg>
