<svg width="128" height="55" viewBox="0 0 128 55" fill="none" xmlns="http://www.w3.org/2000/svg">
<mask id="path-1-outside-1_31_2468" maskUnits="userSpaceOnUse" x="5" y="9" width="120" height="38" fill="black">
<rect fill="white" x="5" y="9" width="120" height="38"/>
<path d="M8.18776 18.0374C12.1574 15.7937 16.4723 14.6718 20.744 14.5855C30.8839 14.3698 32.8687 26.7534 24.9294 29.9464L31.4016 36.807L25.1883 41.5965L18.4571 32.2333L15.8682 32.6648L16.3428 40.2157L9.05073 40.863L8.18776 18.0374ZM15.523 26.7966C17.0332 26.926 18.6297 26.8397 20.0536 26.3219C23.8507 24.9412 22.9445 21.1873 20.0967 21.1873C18.1551 21.1873 16.5586 21.705 15.1347 22.1365L15.523 26.7966ZM46.5552 32.3196C57.6875 33.9161 54.6671 18.5984 45.1744 23.2152L46.5552 32.3196ZM37.6666 21.5756L42.9307 21.101L42.6287 15.88C45.2607 15.1033 48.4106 14.715 51.733 15.3191C62.477 17.3039 65.5405 37.2385 49.5756 39.7843C47.2456 40.1294 44.9155 40 42.5855 39.4822L44.3978 31.1114L39.1337 31.5429L38.9611 30.3347L41.0322 30.2053L40.687 22.3091L37.796 22.4817L37.6666 21.5756ZM67.1454 17.0882C71.1151 15.8369 79.1839 13.2479 84.75 15.0602C90.0141 16.7861 90.4888 22.3091 85.6561 25.8473L85.1384 26.3219L85.7424 26.4945C93.7249 28.1342 92.3873 39.137 84.4048 40.5178C79.7879 41.2945 75.1279 40.6472 70.4679 40L67.1454 17.0882ZM77.1127 33.8729C78.2346 34.175 79.7879 34.3907 81.7728 33.7866C83.8439 33.1825 84.0165 30.5505 81.6865 30.0327C79.7879 29.6012 77.6737 30.2053 76.4224 30.7662L77.1127 33.8729ZM75.5594 25.459C76.8539 25.6316 78.2346 25.7179 80.2194 25.1569C82.2474 24.5528 82.5926 21.403 79.8311 21.0147C77.8894 20.7558 76.1203 21.403 74.8259 22.0502L75.5594 25.459ZM111.665 41.5533C109.249 41.5533 105.107 40.6904 102.561 38.533V38.4898C104.546 37.3248 106.056 35.5126 107.048 33.1394C108.3 33.8729 109.896 34.4338 111.579 34.3907C114.297 34.3044 115.807 30.5936 109.767 29.817C109.206 29.7307 108.645 29.6444 108.17 29.5149V29.4718C109.033 24.898 108.861 20.1948 108.774 15.578L105.538 15.3622C106.919 14.3698 108.688 13.6794 110.802 13.5931C114.858 13.3774 117.663 14.3267 119.087 15.2759L116.066 21.6187C115.117 21.0147 113.823 20.4969 112.183 20.4537C108.602 20.3243 108.084 24.1645 112.701 24.6391C125.991 26.0199 122.754 41.5533 111.665 41.5533Z"/>
<path d="M25.7661 14.7581L41.6015 13.5068L42.033 20.3243L32.5404 21.1873L32.7561 23.6467L39.8756 23.2152L40.1345 29.3855L33.1013 29.817L33.317 32.9236L43.3275 32.0607L41.731 39.5254L28.0098 40.5178L32.713 36.8933L26.3701 30.2053C32.4541 26.7966 31.9363 17.8217 25.7661 14.7581ZM95.5108 39.0939C93.6123 38.9644 91.9295 38.4467 90.5056 37.5837C93.224 33.5709 92.2747 27.6595 86.9243 25.9336C91.0234 22.3954 90.8077 17.3039 86.6223 14.9307L87.0969 13.2048L95.1657 14.1541C93.8712 18.7709 93.0514 23.6036 93.526 27.2712C94.0869 31.6292 97.7977 33.0099 99.2216 29.0403C100.732 24.8549 99.912 20.3243 99.6963 15.88L107.894 16.3978C107.981 20.7558 108.11 25.0706 107.29 29.2992C105.996 36.0303 101.897 39.6117 95.5108 39.0939Z"/>
</mask>
<path d="M8.18776 18.0374C12.1574 15.7937 16.4723 14.6718 20.744 14.5855C30.8839 14.3698 32.8687 26.7534 24.9294 29.9464L31.4016 36.807L25.1883 41.5965L18.4571 32.2333L15.8682 32.6648L16.3428 40.2157L9.05073 40.863L8.18776 18.0374ZM15.523 26.7966C17.0332 26.926 18.6297 26.8397 20.0536 26.3219C23.8507 24.9412 22.9445 21.1873 20.0967 21.1873C18.1551 21.1873 16.5586 21.705 15.1347 22.1365L15.523 26.7966ZM46.5552 32.3196C57.6875 33.9161 54.6671 18.5984 45.1744 23.2152L46.5552 32.3196ZM37.6666 21.5756L42.9307 21.101L42.6287 15.88C45.2607 15.1033 48.4106 14.715 51.733 15.3191C62.477 17.3039 65.5405 37.2385 49.5756 39.7843C47.2456 40.1294 44.9155 40 42.5855 39.4822L44.3978 31.1114L39.1337 31.5429L38.9611 30.3347L41.0322 30.2053L40.687 22.3091L37.796 22.4817L37.6666 21.5756ZM67.1454 17.0882C71.1151 15.8369 79.1839 13.2479 84.75 15.0602C90.0141 16.7861 90.4888 22.3091 85.6561 25.8473L85.1384 26.3219L85.7424 26.4945C93.7249 28.1342 92.3873 39.137 84.4048 40.5178C79.7879 41.2945 75.1279 40.6472 70.4679 40L67.1454 17.0882ZM77.1127 33.8729C78.2346 34.175 79.7879 34.3907 81.7728 33.7866C83.8439 33.1825 84.0165 30.5505 81.6865 30.0327C79.7879 29.6012 77.6737 30.2053 76.4224 30.7662L77.1127 33.8729ZM75.5594 25.459C76.8539 25.6316 78.2346 25.7179 80.2194 25.1569C82.2474 24.5528 82.5926 21.403 79.8311 21.0147C77.8894 20.7558 76.1203 21.403 74.8259 22.0502L75.5594 25.459ZM111.665 41.5533C109.249 41.5533 105.107 40.6904 102.561 38.533V38.4898C104.546 37.3248 106.056 35.5126 107.048 33.1394C108.3 33.8729 109.896 34.4338 111.579 34.3907C114.297 34.3044 115.807 30.5936 109.767 29.817C109.206 29.7307 108.645 29.6444 108.17 29.5149V29.4718C109.033 24.898 108.861 20.1948 108.774 15.578L105.538 15.3622C106.919 14.3698 108.688 13.6794 110.802 13.5931C114.858 13.3774 117.663 14.3267 119.087 15.2759L116.066 21.6187C115.117 21.0147 113.823 20.4969 112.183 20.4537C108.602 20.3243 108.084 24.1645 112.701 24.6391C125.991 26.0199 122.754 41.5533 111.665 41.5533Z" fill="#FF6058"/>
<path d="M25.7661 14.7581L41.6015 13.5068L42.033 20.3243L32.5404 21.1873L32.7561 23.6467L39.8756 23.2152L40.1345 29.3855L33.1013 29.817L33.317 32.9236L43.3275 32.0607L41.731 39.5254L28.0098 40.5178L32.713 36.8933L26.3701 30.2053C32.4541 26.7966 31.9363 17.8217 25.7661 14.7581ZM95.5108 39.0939C93.6123 38.9644 91.9295 38.4467 90.5056 37.5837C93.224 33.5709 92.2747 27.6595 86.9243 25.9336C91.0234 22.3954 90.8077 17.3039 86.6223 14.9307L87.0969 13.2048L95.1657 14.1541C93.8712 18.7709 93.0514 23.6036 93.526 27.2712C94.0869 31.6292 97.7977 33.0099 99.2216 29.0403C100.732 24.8549 99.912 20.3243 99.6963 15.88L107.894 16.3978C107.981 20.7558 108.11 25.0706 107.29 29.2992C105.996 36.0303 101.897 39.6117 95.5108 39.0939Z" fill="white"/>
<path d="M8.18776 18.0374L6.65437 15.3245L5.002 16.2585L5.07371 18.1552L8.18776 18.0374ZM20.744 14.5855L20.8069 17.7012L20.8103 17.7011L20.744 14.5855ZM24.9294 29.9464L23.7666 27.0552L19.5264 28.7605L22.6626 32.0849L24.9294 29.9464ZM31.4016 36.807L33.3042 39.2751L36.0312 37.1731L33.6684 34.6686L31.4016 36.807ZM25.1883 41.5965L22.658 43.4155L24.5388 46.0318L27.0908 44.0646L25.1883 41.5965ZM18.4571 32.2333L20.9874 30.4143L19.8563 28.8408L17.9448 29.1594L18.4571 32.2333ZM15.8682 32.6648L15.3559 29.5909L12.5816 30.0533L12.7581 32.8603L15.8682 32.6648ZM16.3428 40.2157L16.6183 43.3198L19.6435 43.0513L19.453 40.0202L16.3428 40.2157ZM9.05073 40.863L5.93668 40.9807L6.06054 44.2569L9.32624 43.967L9.05073 40.863ZM15.523 26.7966L12.4175 27.0554L12.6359 29.6768L15.2569 29.9015L15.523 26.7966ZM20.0536 26.3219L21.1186 29.2506L21.1186 29.2506L20.0536 26.3219ZM15.1347 22.1365L14.2309 19.1542L11.8199 19.8848L12.0292 22.3953L15.1347 22.1365ZM9.72115 20.7503C13.232 18.766 17.04 17.7773 20.8069 17.7012L20.681 11.4699C15.9045 11.5664 11.0829 12.8214 6.65437 15.3245L9.72115 20.7503ZM20.8103 17.7011C24.3666 17.6255 26.1193 19.6179 26.5744 21.6642C27.0591 23.8438 26.1388 26.1011 23.7666 27.0552L26.0921 32.8376C31.6592 30.5987 33.7162 25.0677 32.6583 20.3112C31.5709 15.4214 27.2612 11.3299 20.6777 11.47L20.8103 17.7011ZM22.6626 32.0849L29.1349 38.9455L33.6684 34.6686L27.1961 27.8079L22.6626 32.0849ZM29.4991 34.3389L23.2858 39.1284L27.0908 44.0646L33.3042 39.2751L29.4991 34.3389ZM27.7186 39.7775L20.9874 30.4143L15.9268 34.0523L22.658 43.4155L27.7186 39.7775ZM17.9448 29.1594L15.3559 29.5909L16.3805 35.7386L18.9694 35.3072L17.9448 29.1594ZM12.7581 32.8603L13.2327 40.4112L19.453 40.0202L18.9783 32.4693L12.7581 32.8603ZM16.0673 37.1117L8.77522 37.7589L9.32624 43.967L16.6183 43.3198L16.0673 37.1117ZM12.1648 40.7452L11.3018 17.9197L5.07371 18.1552L5.93668 40.9807L12.1648 40.7452ZM15.2569 29.9015C17.0317 30.0536 19.1225 29.9764 21.1186 29.2506L18.9886 23.3933C18.1369 23.703 17.0347 23.7984 15.7891 23.6917L15.2569 29.9015ZM21.1186 29.2506C23.9656 28.2153 25.9501 25.8347 25.6687 22.9357C25.3965 20.1321 23.0272 18.071 20.0967 18.071V24.3035C20.1039 24.3035 19.9507 24.2961 19.7712 24.1388C19.6024 23.9909 19.4882 23.7736 19.4653 23.538C19.4411 23.2889 19.5264 23.1258 19.5586 23.0822C19.5846 23.0472 19.4781 23.2153 18.9886 23.3933L21.1186 29.2506ZM20.0967 18.071C17.6181 18.071 15.5828 18.7445 14.2309 19.1542L16.0384 25.1189C17.5344 24.6656 18.692 24.3035 20.0967 24.3035V18.071ZM12.0292 22.3953L12.4175 27.0554L18.6285 26.5378L18.2402 21.8777L12.0292 22.3953ZM25.7661 14.7581L25.5206 11.6515L14.2891 12.539L24.3802 17.5493L25.7661 14.7581ZM41.6015 13.5068L44.7116 13.31L44.5117 10.1509L41.3561 10.4002L41.6015 13.5068ZM42.033 20.3243L42.3152 23.4278L45.3346 23.1533L45.1431 20.1275L42.033 20.3243ZM32.5404 21.1873L32.2582 18.0838L29.1646 18.365L29.436 21.4596L32.5404 21.1873ZM32.7561 23.6467L29.6517 23.919L29.9168 26.9408L32.9446 26.7573L32.7561 23.6467ZM39.8756 23.2152L42.9891 23.0846L42.8561 19.9126L39.6871 20.1047L39.8756 23.2152ZM40.1345 29.3855L40.3253 32.4959L43.3762 32.3087L43.248 29.2548L40.1345 29.3855ZM33.1013 29.817L32.9105 26.7065L29.7749 26.8989L29.9925 30.0328L33.1013 29.817ZM33.317 32.9236L30.2082 33.1395L30.4278 36.3006L33.5847 36.0284L33.317 32.9236ZM43.3275 32.0607L46.3748 32.7124L47.2556 28.5942L43.0598 28.9559L43.3275 32.0607ZM41.731 39.5254L41.9558 42.6335L44.2891 42.4648L44.7784 40.1771L41.731 39.5254ZM28.0098 40.5178L26.1076 38.0494L17.9016 44.3733L28.2346 43.6259L28.0098 40.5178ZM32.713 36.8933L34.6152 39.3617L37.35 37.2541L34.9741 34.7489L32.713 36.8933ZM26.3701 30.2053L24.8469 27.4867L21.3533 29.4441L24.109 32.3497L26.3701 30.2053ZM26.0115 17.8647L41.847 16.6134L41.3561 10.4002L25.5206 11.6515L26.0115 17.8647ZM38.4915 13.7037L38.923 20.5211L45.1431 20.1275L44.7116 13.31L38.4915 13.7037ZM41.7509 17.2208L32.2582 18.0838L32.8225 24.2907L42.3152 23.4278L41.7509 17.2208ZM29.436 21.4596L29.6517 23.919L35.8605 23.3744L35.6447 20.915L29.436 21.4596ZM32.9446 26.7573L40.0641 26.3258L39.6871 20.1047L32.5676 20.5362L32.9446 26.7573ZM36.7621 23.3459L37.021 29.5161L43.248 29.2548L42.9891 23.0846L36.7621 23.3459ZM39.9437 26.275L32.9105 26.7065L33.2921 32.9274L40.3253 32.4959L39.9437 26.275ZM29.9925 30.0328L30.2082 33.1395L36.4258 32.7078L36.2101 29.6011L29.9925 30.0328ZM33.5847 36.0284L43.5951 35.1654L43.0598 28.9559L33.0494 29.8189L33.5847 36.0284ZM40.2801 31.4089L38.6836 38.8736L44.7784 40.1771L46.3748 32.7124L40.2801 31.4089ZM41.5062 36.4172L27.785 37.4096L28.2346 43.6259L41.9558 42.6335L41.5062 36.4172ZM29.912 42.9861L34.6152 39.3617L30.8107 34.425L26.1076 38.0494L29.912 42.9861ZM34.9741 34.7489L28.6312 28.0609L24.109 32.3497L30.4518 39.0377L34.9741 34.7489ZM27.8933 32.9239C36.3244 28.2001 35.3975 16.061 27.1519 11.967L24.3802 17.5493C28.475 19.5824 28.5837 25.393 24.8469 27.4867L27.8933 32.9239ZM46.5552 32.3196L43.4741 32.7868L43.8213 35.0757L46.1128 35.4043L46.5552 32.3196ZM45.1744 23.2152L43.8115 20.4128L41.7496 21.4156L42.0934 23.6825L45.1744 23.2152ZM37.6666 21.5756L37.3868 18.4719L34.1174 18.7667L34.5816 22.0163L37.6666 21.5756ZM42.9307 21.101L43.2106 24.2047L46.2161 23.9337L46.0418 20.921L42.9307 21.101ZM42.6287 15.88L41.7467 12.8911L39.3748 13.591L39.5176 16.06L42.6287 15.88ZM51.733 15.3191L52.2991 12.2546L52.2905 12.2531L51.733 15.3191ZM49.5756 39.7843L50.0323 42.8669L50.0493 42.8644L50.0663 42.8617L49.5756 39.7843ZM42.5855 39.4822L39.5398 38.8228L38.884 41.852L41.9095 42.5243L42.5855 39.4822ZM44.3978 31.1114L47.4435 31.7708L48.333 27.6621L44.1432 28.0055L44.3978 31.1114ZM39.1337 31.5429L36.0487 31.9836L36.4637 34.8885L39.3882 34.6488L39.1337 31.5429ZM38.9611 30.3347L38.7667 27.2245L35.3989 27.435L35.8761 30.7754L38.9611 30.3347ZM41.0322 30.2053L41.2266 33.3155L44.2791 33.1247L44.1455 30.0692L41.0322 30.2053ZM40.687 22.3091L43.8003 22.173L43.662 19.0097L40.5013 19.1984L40.687 22.3091ZM37.796 22.4817L34.7111 22.9224L35.117 25.7635L37.9818 25.5925L37.796 22.4817ZM46.1128 35.4043C49.5664 35.8996 52.5603 35.1485 54.5796 33.1196C56.5535 31.1363 57.0888 28.428 56.6661 26.0821C56.244 23.7403 54.8154 21.4249 52.4144 20.1583C49.9214 18.8431 46.8882 18.9164 43.8115 20.4128L46.5374 26.0176C48.207 25.2056 49.1111 25.4623 49.5063 25.6708C49.9937 25.9279 50.4042 26.4764 50.5323 27.1874C50.6597 27.8943 50.4561 28.4275 50.162 28.723C49.9133 28.9729 49.1101 29.5378 46.9976 29.2349L46.1128 35.4043ZM42.0934 23.6825L43.4741 32.7868L49.6362 31.8523L48.2555 22.748L42.0934 23.6825ZM37.9464 24.6793L43.2106 24.2047L42.6509 17.9973L37.3868 18.4719L37.9464 24.6793ZM46.0418 20.921L45.7398 15.7L39.5176 16.06L39.8196 21.2809L46.0418 20.921ZM43.5106 18.8689C45.7777 18.1999 48.4272 17.8854 51.1756 18.3851L52.2905 12.2531C48.3939 11.5446 44.7437 12.0068 41.7467 12.8911L43.5106 18.8689ZM51.1669 18.3835C54.6451 19.0261 57.4613 22.8353 57.5545 27.4049C57.5986 29.5673 56.9915 31.6228 55.7168 33.2308C54.4684 34.8054 52.4014 36.178 49.0849 36.7069L50.0663 42.8617C54.7323 42.1176 58.2692 40.0437 60.6008 37.1026C62.906 34.1949 63.8549 30.6653 63.7858 27.2777C63.6525 20.7474 59.5649 13.5969 52.2991 12.2546L51.1669 18.3835ZM49.1189 36.7016C47.2083 36.9847 45.2641 36.8851 43.2615 36.4401L41.9095 42.5243C44.567 43.1149 47.2829 43.2742 50.0323 42.8669L49.1189 36.7016ZM45.6313 40.1416L47.4435 31.7708L41.352 30.452L39.5398 38.8228L45.6313 40.1416ZM44.1432 28.0055L38.8791 28.437L39.3882 34.6488L44.6523 34.2173L44.1432 28.0055ZM42.2186 31.1022L42.046 29.894L35.8761 30.7754L36.0487 31.9836L42.2186 31.1022ZM39.1554 33.445L41.2266 33.3155L40.8378 27.0951L38.7667 27.2245L39.1554 33.445ZM44.1455 30.0692L43.8003 22.173L37.5737 22.4452L37.9189 30.3414L44.1455 30.0692ZM40.5013 19.1984L37.6103 19.371L37.9818 25.5925L40.8727 25.4199L40.5013 19.1984ZM40.881 22.041L40.7516 21.1349L34.5816 22.0163L34.7111 22.9224L40.881 22.041ZM67.1454 17.0882L66.2086 14.116L63.6811 14.9127L64.0614 17.5354L67.1454 17.0882ZM84.75 15.0602L85.7209 12.099L85.7148 12.097L84.75 15.0602ZM85.6561 25.8473L83.8152 23.3329L83.6768 23.4342L83.5504 23.5501L85.6561 25.8473ZM85.1384 26.3219L83.0326 24.0248L78.927 27.7882L84.2823 29.3183L85.1384 26.3219ZM85.7424 26.4945L84.8863 29.4909L84.9998 29.5233L85.1154 29.5471L85.7424 26.4945ZM84.4048 40.5178L84.9218 43.5909L84.9289 43.5897L84.936 43.5885L84.4048 40.5178ZM70.4679 40L67.3839 40.4472L67.7199 42.7645L70.0392 43.0867L70.4679 40ZM77.1127 33.8729L74.0707 34.5489L74.4801 36.3914L76.3026 36.882L77.1127 33.8729ZM81.7728 33.7866L80.9002 30.795L80.8828 30.8001L80.8654 30.8054L81.7728 33.7866ZM81.6865 30.0327L80.9958 33.0715L81.0032 33.0731L81.0105 33.0748L81.6865 30.0327ZM76.4224 30.7662L75.1476 27.9226L72.8291 28.9619L73.3803 31.4422L76.4224 30.7662ZM75.5594 25.459L72.5129 26.1145L72.9741 28.2581L75.1475 28.5479L75.5594 25.459ZM80.2194 25.1569L81.0669 28.1557L81.088 28.1498L81.1091 28.1435L80.2194 25.1569ZM79.8311 21.0147L80.2651 17.9288L80.254 17.9272L80.243 17.9257L79.8311 21.0147ZM74.8259 22.0502L73.4322 19.2629L71.271 20.3436L71.7793 22.7058L74.8259 22.0502ZM68.0823 20.0603C70.0878 19.4281 72.9157 18.5292 75.9006 17.9924C78.956 17.443 81.7454 17.3592 83.7853 18.0234L85.7148 12.097C82.1885 10.9489 78.1605 11.2535 74.7975 11.8583C71.364 12.4757 68.1727 13.4969 66.2086 14.116L68.0823 20.0603ZM83.7791 18.0214C85.4503 18.5693 85.8359 19.4669 85.8842 20.037C85.9421 20.7213 85.5996 22.0264 83.8152 23.3329L87.497 28.3617C90.5453 26.13 92.3818 22.9045 92.0945 19.5113C91.7976 16.0038 89.3138 13.277 85.7209 12.099L83.7791 18.0214ZM83.5504 23.5501L83.0326 24.0248L87.2441 28.6191L87.7619 28.1445L83.5504 23.5501ZM84.2823 29.3183L84.8863 29.4909L86.5985 23.4981L85.9945 23.3256L84.2823 29.3183ZM85.1154 29.5471C86.379 29.8066 87.0645 30.3733 87.4462 30.9349C87.8536 31.5344 88.0606 32.3485 87.9619 33.272C87.7634 35.1291 86.3846 37.0128 83.8737 37.4471L84.936 43.5885C90.4075 42.642 93.6888 38.3339 94.1591 33.9345C94.3948 31.7297 93.9383 29.3994 92.601 27.4316C91.2378 25.4258 89.0971 24.0023 86.3694 23.442L85.1154 29.5471ZM83.8879 37.4447C79.8223 38.1286 75.6425 37.5725 70.8966 36.9133L70.0392 43.0867C74.6133 43.7219 79.7536 44.4603 84.9218 43.5909L83.8879 37.4447ZM73.5519 39.5528L70.2295 16.6409L64.0614 17.5354L67.3839 40.4472L73.5519 39.5528ZM76.3026 36.882C77.8236 37.2916 79.9934 37.5856 82.6801 36.7679L80.8654 30.8054C79.5825 31.1958 78.6456 31.0584 77.9229 30.8638L76.3026 36.882ZM82.6453 36.7782C84.8795 36.1266 86.4652 34.2041 86.4961 31.9194C86.5292 29.4655 84.786 27.5292 82.3625 26.9906L81.0105 33.0748C81.0303 33.0792 80.8209 33.0316 80.5979 32.7687C80.3756 32.5067 80.2596 32.1665 80.2641 31.8352C80.2734 31.147 80.7371 30.8426 80.9002 30.795L82.6453 36.7782ZM82.3771 26.9939C79.5179 26.3441 76.656 27.2464 75.1476 27.9226L77.6971 33.6099C78.1258 33.4177 78.726 33.2099 79.3676 33.0936C80.0198 32.9754 80.5772 32.9764 80.9958 33.0715L82.3771 26.9939ZM73.3803 31.4422L74.0707 34.5489L80.1548 33.1969L79.4644 30.0902L73.3803 31.4422ZM75.1475 28.5479C76.7003 28.7549 78.5396 28.87 81.0669 28.1557L79.3719 22.1581C77.9296 22.5657 77.0074 22.5082 75.9713 22.37L75.1475 28.5479ZM81.1091 28.1435C83.5493 27.4166 84.9505 25.1775 84.9375 22.9865C84.9308 21.8419 84.5411 20.6343 83.6555 19.653C82.7625 18.6635 81.5542 18.11 80.2651 17.9288L79.3971 24.1006C79.4888 24.1135 79.2728 24.0994 79.0285 23.8286C78.7914 23.5659 78.7065 23.2564 78.7051 23.0233C78.7029 22.6553 78.9176 22.2931 79.3298 22.1703L81.1091 28.1435ZM80.243 17.9257C77.3899 17.5453 74.9437 18.5072 73.4322 19.2629L76.2195 24.8375C77.297 24.2988 78.3889 23.9662 79.4192 24.1036L80.243 17.9257ZM71.7793 22.7058L72.5129 26.1145L78.6059 24.8034L77.8724 21.3946L71.7793 22.7058ZM95.5108 39.0939L95.7627 35.9878L95.7428 35.9862L95.7228 35.9848L95.5108 39.0939ZM90.5056 37.5837L87.9256 35.8359L86.0872 38.5498L88.8905 40.2487L90.5056 37.5837ZM86.9243 25.9336L84.8881 23.5746L80.691 27.1973L85.9676 28.8994L86.9243 25.9336ZM86.6223 14.9307L83.6175 14.1044L82.974 16.4445L85.0852 17.6416L86.6223 14.9307ZM87.0969 13.2048L87.461 10.1099L84.8021 9.79704L84.0922 12.3785L87.0969 13.2048ZM95.1657 14.1541L98.1662 14.9953L99.1504 11.4851L95.5298 11.0591L95.1657 14.1541ZM93.526 27.2712L96.6168 26.8734L96.6165 26.8712L93.526 27.2712ZM99.2216 29.0403L96.2903 27.9826L96.2883 27.9881L99.2216 29.0403ZM99.6963 15.88L99.8927 12.7699L96.4147 12.5503L96.5836 16.0311L99.6963 15.88ZM107.894 16.3978L111.01 16.3361L110.953 13.4685L108.091 13.2877L107.894 16.3978ZM107.29 29.2992L104.231 28.706L104.23 28.7107L107.29 29.2992ZM95.7228 35.9848C94.2681 35.8856 93.0761 35.4976 92.1208 34.9186L88.8905 40.2487C90.7829 41.3957 92.9566 42.0432 95.2989 42.2029L95.7228 35.9848ZM93.0857 39.3314C94.9216 36.6213 95.5587 33.2255 94.7582 30.1226C93.9332 26.9247 91.603 24.1684 87.881 22.9678L85.9676 28.8994C87.596 29.4247 88.4156 30.487 88.7233 31.6795C89.0554 32.967 88.808 34.5333 87.9256 35.8359L93.0857 39.3314ZM88.9605 28.2926C91.5836 26.0285 93.0951 23.0166 92.9946 19.8951C92.8923 16.7144 91.1222 13.8999 88.1593 12.2199L85.0852 17.6416C86.3077 18.3347 86.7382 19.2526 86.7653 20.0955C86.7943 20.9976 86.3641 22.3005 84.8881 23.5746L88.9605 28.2926ZM89.627 15.757L90.1016 14.0311L84.0922 12.3785L83.6175 14.1044L89.627 15.757ZM86.7328 16.2997L94.8016 17.249L95.5298 11.0591L87.461 10.1099L86.7328 16.2997ZM92.1651 13.3128C90.842 18.0318 89.8778 23.3617 90.4355 27.6711L96.6165 26.8712C96.225 23.8455 96.9004 19.51 98.1662 14.9953L92.1651 13.3128ZM90.4352 27.669C90.7975 30.4834 92.308 33.3119 95.0607 34.2336C96.5304 34.7258 98.1352 34.5535 99.504 33.667C100.801 32.8268 101.646 31.5111 102.155 30.0924L96.2883 27.9881C96.0852 28.5543 95.9324 28.5546 96.1157 28.4358C96.2143 28.372 96.3682 28.3047 96.5631 28.2809C96.756 28.2573 96.9223 28.2843 97.0397 28.3236C97.2596 28.3972 97.214 28.4713 97.0532 28.2277C96.9025 27.9994 96.7055 27.5623 96.6168 26.8734L90.4352 27.669ZM102.153 30.098C103.091 27.4991 103.269 24.8915 103.222 22.4964C103.179 20.3241 102.898 17.5733 102.809 15.7289L96.5836 16.0311C96.7098 18.631 96.9466 20.3676 96.9905 22.618C97.03 24.6457 96.8628 26.3961 96.2903 27.9826L102.153 30.098ZM99.4998 18.9901L107.698 19.5079L108.091 13.2877L99.8927 12.7699L99.4998 18.9901ZM104.779 16.4595C104.867 20.9081 104.975 24.8664 104.231 28.706L110.35 29.8923C111.245 25.2748 111.095 20.6035 111.01 16.3361L104.779 16.4595ZM104.23 28.7107C103.675 31.6002 102.588 33.4483 101.302 34.5315C100.058 35.5794 98.2959 36.1932 95.7627 35.9878L95.259 42.2C99.1117 42.5124 102.592 41.5944 105.318 39.2982C108.001 37.0375 109.612 33.7293 110.351 29.8877L104.23 28.7107ZM102.561 38.533H99.4446V39.9768L100.546 40.9103L102.561 38.533ZM102.561 38.4898L100.983 35.8023L99.4446 36.7055V38.4898H102.561ZM107.048 33.1394L108.624 30.451L105.549 28.6481L104.173 31.9371L107.048 33.1394ZM111.579 34.3907L111.659 37.506L111.668 37.5057L111.678 37.5054L111.579 34.3907ZM109.767 29.817L109.293 32.897L109.331 32.9029L109.369 32.9078L109.767 29.817ZM108.17 29.5149H105.054V31.8951L107.35 32.5214L108.17 29.5149ZM108.17 29.4718L105.108 28.894L105.054 29.1804V29.4718H108.17ZM108.774 15.578L111.89 15.5197L111.837 12.6589L108.982 12.4686L108.774 15.578ZM105.538 15.3622L103.719 12.8317L96.6755 17.8946L105.331 18.4716L105.538 15.3622ZM110.802 13.5931L110.929 16.7068L110.949 16.706L110.968 16.705L110.802 13.5931ZM119.087 15.2759L121.9 16.6157L123.06 14.1797L120.815 12.683L119.087 15.2759ZM116.066 21.6187L114.393 24.2478L117.365 26.1391L118.88 22.9585L116.066 21.6187ZM112.183 20.4537L112.07 23.568L112.086 23.5685L112.101 23.5689L112.183 20.4537ZM112.701 24.6391L113.023 21.5395L113.019 21.5392L112.701 24.6391ZM111.665 38.4371C110.777 38.4371 109.432 38.2704 108.038 37.8618C106.63 37.4489 105.403 36.8568 104.576 36.1556L100.546 40.9103C102.264 42.3665 104.382 43.2846 106.285 43.8426C108.203 44.4048 110.137 44.6696 111.665 44.6696V38.4371ZM105.677 38.533V38.4898H99.4446V38.533H105.677ZM104.138 41.1773C106.782 39.6258 108.707 37.25 109.923 34.3417L104.173 31.9371C103.405 33.7751 102.31 35.0238 100.983 35.8023L104.138 41.1773ZM105.472 35.8278C107.085 36.7734 109.252 37.5677 111.659 37.506L111.499 31.2754C110.54 31.3 109.514 30.9725 108.624 30.451L105.472 35.8278ZM111.678 37.5054C114.111 37.4282 117.194 35.5974 117.072 32.2492C117.009 30.5205 116.018 29.1557 114.749 28.2809C113.528 27.4403 111.954 26.9562 110.164 26.7261L109.369 32.9078C110.6 33.0661 111.102 33.3371 111.213 33.4133C111.274 33.4554 110.869 33.1694 110.843 32.4763C110.821 31.8555 111.13 31.4989 111.251 31.3938C111.383 31.2795 111.472 31.2762 111.48 31.276L111.678 37.5054ZM110.241 26.7369C109.632 26.6433 109.26 26.582 108.99 26.5084L107.35 32.5214C108.03 32.7068 108.78 32.8181 109.293 32.897L110.241 26.7369ZM111.286 29.5149V29.4718H105.054V29.5149H111.286ZM111.232 30.0496C112.168 25.0906 111.974 20.0218 111.89 15.5197L105.659 15.6362C105.747 20.3679 105.898 24.7054 105.108 28.894L111.232 30.0496ZM108.982 12.4686L105.745 12.2528L105.331 18.4716L108.567 18.6873L108.982 12.4686ZM107.357 17.8927C108.259 17.2446 109.443 16.7675 110.929 16.7068L110.675 10.4794C107.933 10.5914 105.579 11.495 103.719 12.8317L107.357 17.8927ZM110.968 16.705C114.511 16.5165 116.612 17.3714 117.358 17.8688L120.815 12.683C118.714 11.282 115.205 10.2382 110.637 10.4812L110.968 16.705ZM116.273 13.9361L113.253 20.279L118.88 22.9585L121.9 16.6157L116.273 13.9361ZM117.739 18.9897C116.38 18.1247 114.543 17.3985 112.265 17.3385L112.101 23.5689C113.102 23.5953 113.854 23.9047 114.393 24.2478L117.739 18.9897ZM112.296 17.3395C109.621 17.2428 106.251 18.7811 106.251 22.3199C106.251 25.7978 109.544 27.4473 112.382 27.7391L113.019 21.5392C112.266 21.4618 112.043 21.2763 112.085 21.3092C112.15 21.3603 112.484 21.6889 112.484 22.3199C112.484 22.9472 112.15 23.3513 111.937 23.5063C111.739 23.6503 111.717 23.5552 112.07 23.568L112.296 17.3395ZM112.379 27.7387C115.085 28.0199 116.56 28.9691 117.323 29.8738C118.091 30.7837 118.401 31.9524 118.235 33.2073C117.899 35.7618 115.597 38.4371 111.665 38.4371V44.6696C118.823 44.6696 123.683 39.5781 124.415 34.0208C124.783 31.2197 124.104 28.2461 122.087 25.8552C120.066 23.4591 116.961 21.9487 113.023 21.5395L112.379 27.7387Z" fill="black" mask="url(#path-1-outside-1_31_2468)"/>
</svg>
